<?xml version="1.0" standalone="no"?>
<!DOCTYPE svg PUBLIC "-//W3C//DTD SVG 20010904//EN"
 "http://www.w3.org/TR/2001/REC-SVG-20010904/DTD/svg10.dtd">
<svg version="1.0" xmlns="http://www.w3.org/2000/svg"
 width="150.000000pt" height="150.000000pt" viewBox="0 0 150.000000 150.000000"
 preserveAspectRatio="xMidYMid meet">

<g transform="translate(0.000000,150.000000) scale(0.100000,-0.100000)"
fill="#000000" stroke="none">
<path d="M194 1381 c-49 -12 -94 -50 -115 -95 -17 -38 -19 -72 -19 -416 0
-370 0 -376 23 -420 41 -82 88 -99 263 -100 l111 0 6 -54 c7 -71 29 -110 79
-144 41 -27 44 -27 202 -27 137 0 167 3 198 19 50 24 82 77 88 146 l5 55 140
5 c125 5 145 8 179 29 78 49 76 36 76 491 l0 405 -24 36 c-14 20 -42 45 -63
55 -36 18 -70 19 -578 21 -297 1 -554 -2 -571 -6z m1112 -125 c18 -14 19 -30
19 -384 0 -298 -3 -372 -14 -385 -12 -15 -64 -17 -562 -17 l-548 0 -15 22
c-24 34 -24 722 0 756 l15 22 543 0 c452 0 545 -2 562 -14z m-386 -945 c0 -66
-12 -71 -174 -71 -103 0 -146 4 -154 13 -13 17 -25 74 -17 87 4 6 71 10 176
10 l169 0 0 -39z"/>
<path d="M467 1003 c-4 -3 -7 -14 -7 -24 0 -14 10 -19 42 -21 l41 -3 -41 -48
c-23 -27 -42 -57 -42 -68 0 -17 7 -19 75 -19 68 0 75 2 75 20 0 17 -7 20 -46
20 l-45 0 47 60 c60 76 56 90 -29 90 -35 0 -67 -3 -70 -7z"/>
<path d="M650 915 c0 -88 1 -95 20 -95 17 0 20 7 20 43 l1 42 20 -27 c11 -16
26 -28 33 -28 7 0 19 12 27 28 l14 27 3 -42 c3 -38 6 -43 28 -43 24 0 24 1 24
90 0 72 -3 92 -15 96 -20 8 -42 -11 -64 -54 l-18 -35 -28 46 c-17 30 -34 47
-46 47 -17 0 -19 -8 -19 -95z"/>
<path d="M903 986 c-24 -21 -26 -27 -18 -52 7 -20 21 -32 45 -40 44 -14 54
-39 14 -32 -16 3 -35 7 -43 9 -19 5 -27 -31 -9 -42 22 -14 104 -10 117 5 7 8
11 27 9 43 -2 22 -12 32 -45 48 -54 24 -55 40 -4 31 30 -5 40 -2 45 10 8 22 9
21 -25 33 -45 16 -54 14 -86 -13z"/>
</g>
</svg>
