<svg width="192" height="64" viewBox="0 0 192 64" xmlns="http://www.w3.org/2000/svg"><g fill="none" fill-rule="evenodd"><g transform="translate(64)"><rect opacity=".422" width="64" height="64"/><path d="M44.9997876,1 C47.2090439,1 49,2.78398548 49,5.00071403 L49,59.999286 C49,62.2088193 47.2079681,64 44.9997876,64 L19.0002124,64 C16.7909561,64 15,62.2160145 15,59.999286 L15,5.00071403 C15,2.79118068 16.7920319,1 19.0002124,1 L44.9997876,1 Z M47,54 L17,54 L17,60.0018986 C17,61.1132936 17.8916773,62 18.991617,62 L18.991617,62 L45.008383,62 C46.1021596,62 47,61.1054196 47,60.0018986 L47,60.0018986 L47,54 Z M32,56 C33.1045695,56 34,56.8954305 34,58 C34,59.1045695 33.1045695,60 32,60 C30.8954305,60 30,59.1045695 30,58 C30,56.8954305 30.8954305,56 32,56 Z M45.008383,3 L18.991617,3 C17.8978404,3 17,3.89458045 17,4.99810135 L17,4.99810135 L17,11 L47,11 L47,4.99810135 C47,3.88670635 46.1083227,3 45.008383,3 L45.008383,3 Z M35.0029699,6 C35.5142826,6 35.9356987,6.38272018 35.9932922,6.88266744 L36,7 C36,7.55228475 35.5469637,8 35.0029699,8 L28.9970301,8 C28.4463856,8 28,7.55613518 28,7 C28,6.44771525 28.4530363,6 28.9970301,6 L35.0029699,6 Z" fill="#FFF"/><rect fill="#00A7E1" x="17" y="13" width="30" height="39"/></g><g transform="translate(128)"><rect opacity=".422" width="64" height="64"/><path d="M59.0035723,8 C61.2107384,8 63,9.78506374 63,12.0071936 L63,50.9928064 C63,53.2059183 61.2113247,55 59.0035723,55 L4.99642766,55 C2.78926161,55 1,53.2149363 1,50.9928064 L1,12.0071936 C1,9.79408167 2.78867531,8 4.99642766,8 L59.0035723,8 Z M59.0035087,10 L4.99649128,10 C3.88783214,10 3,10.8980806 3,12.0059191 L3,12.0059191 L3,17 L61,17 L61,12.0059191 C61,10.8865548 60.1061404,10 59.0035087,10 L59.0035087,10 Z" fill="#FFF"/><path d="M61,19 L61,51.0000796 C61,52.1046051 60.1052696,53 59.0036926,53 L4.99630737,53 C3.89377725,53 3,52.1080589 3,51.0000796 L3,19 L61,19 Z" fill="#60D394"/><circle fill="#FFF" cx="6.5" cy="13.5" r="1.5"/><circle fill="#FFF" cx="10.5" cy="13.5" r="1.5"/><circle fill="#FFF" cx="14.5" cy="13.5" r="1.5"/></g><polygon opacity=".422" points="1 0 63 0 64 64 0 64"/><path d="M13,0 L12.999,5 L28.1262327,5.00024347 C28.5551208,3.33685931 30.0286297,2.0921575 31.8007439,2.00489531 L32,2 C33.8635063,2 35.4293798,3.27751567 35.8737443,5.00057616 L51,5 L51,0 L63,0 L63,12 L51,12 L51,7 L35.8735081,7.00076134 C35.4442858,8.66364193 33.9710135,9.90786007 32.1992561,9.99510469 L32,10 C30.1368576,10 28.5712316,8.72298311 28.1265161,7.000433 L12.999,7 L13,12 L1,12 L1,0 L13,0 Z M32,4 L31.8497808,4.00548574 C30.8088611,4.08183488 30,4.9456382 30,6 C30,7.11227036 30.8954305,8 32,8 L32,8 L32.1502192,7.99451426 C33.1911389,7.91816512 34,7.0543618 34,6 L34,6 L33.9945143,5.84978083 C33.9181651,4.8088611 33.0543618,4 32,4 L32,4 Z" fill="#FFF"/><rect fill="#EE6055" x="3" y="2" width="8" height="8"/><rect fill="#EE6055" x="53" y="2" width="8" height="8"/><path d="M16,35 C26,26 32,14 32,14 C32,14 38,26 48,35 C42,43 40,53 40,53 L24,53 C24,53 22,43 16,35 Z" fill="#EE6055"/><path d="M31.1055728,13.5527864 C31.4740971,12.8157379 32.5259029,12.8157379 32.8944272,13.5527864 C32.9215789,13.6070898 32.9781402,13.7175982 33.0636003,13.8805518 C33.2077939,14.1554973 33.3798765,14.4753944 33.5793344,14.836482 C34.1512058,15.8717664 34.826501,17.0268766 35.6010566,18.2716981 C37.814973,21.829778 40.3768794,25.3879814 43.2516891,28.7050695 C44.9936547,30.7150298 46.8010409,32.5755744 48.6689647,34.2567059 C49.0537825,34.6030419 49.1106316,35.1858245 48.8,35.6 C47.8682162,36.8423784 47.0001291,38.1817127 46.1940963,39.6041237 C44.5089809,42.5778566 43.167535,45.7717755 42.1381508,48.966416 C41.7778677,50.0845361 41.4826213,51.1218884 41.248098,52.0511314 C41.1664221,52.3747528 41.0982693,52.6611924 41.0430904,52.9070387 C41.0277898,52.97521 37.0288458,53.0113006 32.7955699,53.0153107 L31.2044301,53.0153107 C26.9711542,53.0113006 22.9722102,52.97521 22.9569096,52.9070387 C22.9017307,52.6611924 22.8335779,52.3747528 22.751902,52.0511314 C22.5173787,51.1218884 22.2221323,50.0845361 21.8618492,48.966416 C20.832465,45.7717755 19.4910191,42.5778566 17.8059037,39.6041237 C16.9998709,38.1817127 16.1317838,36.8423784 15.2,35.6 C14.8893684,35.1858245 14.9462175,34.6030419 15.3310353,34.2567059 C17.1989591,32.5755744 19.0063453,30.7150298 20.7483109,28.7050695 C23.6231206,25.3879814 26.185027,21.829778 28.3989434,18.2716981 C29.173499,17.0268766 29.8487942,15.8717664 30.4206656,14.836482 C30.6201235,14.4753944 30.7922061,14.1554973 30.9363997,13.8805518 C31.0218598,13.7175982 31.0784211,13.6070898 31.1055728,13.5527864 Z M32.010252,16.1301079 L31.9865006,16.1704243 C31.8865851,16.3400276 31.4912655,17.0111067 31.1817163,17.5371096 C30.8442338,18.1105784 30.4825339,18.7087848 30.0970566,19.3283019 C27.830973,22.970222 25.2088794,26.6120186 22.2596891,30.0149305 C20.9603543,31.514163 19.6239976,32.9344076 18.2518032,34.2642664 C17.7293635,34.7705874 17.3328093,35.12949 17.3328093,35.12949 C17.3328093,35.12949 18.1007182,36.2408594 18.4675344,36.8191245 C18.8385572,37.4040211 19.1979594,38.0040007 19.5459481,38.6180985 C21.3041198,41.7207545 22.6970489,45.0372523 23.7654657,48.3530285 C24.1394128,49.5135542 24.4463799,50.5920873 24.6910957,51.5617158 C24.7274131,51.705615 24.7927026,52 24.7927026,52 L24.7927026,52 L39.22052,52 C39.22052,52 39.2228465,51.9026994 39.3089043,51.5617158 C39.5536201,50.5920873 39.8605872,49.5135542 40.2345343,48.3530285 C41.3029511,45.0372523 42.6958802,41.7207545 44.4540519,38.6180985 C44.8273717,37.9592988 45.213827,37.3167476 45.6136738,36.6916358 C45.8779201,36.278519 46.3618797,35.572789 46.5749958,35.2635522 L46.6523393,35.1514902 C46.6705192,35.1251935 46.6805022,35.1107905 46.6805022,35.1107905 C46.6805022,35.1107905 46.1051982,34.615484 45.502679,34.0249862 C44.2164815,32.7644508 42.9620307,31.4246072 41.7403109,30.0149305 C38.7911206,26.6120186 36.169027,22.970222 33.9029434,19.3283019 C33.546634,18.7556618 33.2106399,18.2012295 32.8953084,17.6677112 C32.6598406,17.2693166 32.010252,16.1301079 32.010252,16.1301079 L32.010252,16.1301079 Z" fill="#FFF" fill-rule="nonzero"/><circle fill="#000" cx="32" cy="38" r="5"/><path d="M32 32C35.3137085 32 38 34.6862915 38 38 38 41.3137085 35.3137085 44 32 44 28.6862915 44 26 41.3137085 26 38 26 34.6862915 28.6862915 32 32 32ZM32 34C29.790861 34 28 35.790861 28 38 28 40.209139 29.790861 42 32 42 34.209139 42 36 40.209139 36 38 36 35.790861 34.209139 34 32 34ZM46.0098214 52C48.2135362 52 50 53.7965212 50 55.9958262L50 64 14 64 14 55.9958262C14 53.7889923 15.7852456 52 17.9901786 52L46.0098214 52ZM45.9982567 54 18.0017433 54C16.8892617 54 16 54.8945804 16 55.9981014L16 55.9981014 16 62 48 62 48 55.9981014C48 54.8867064 47.103789 54 45.9982567 54L45.9982567 54Z" fill="#FFF"/><rect fill="#FFF" x="31" y="16" width="2" height="17"/></g></svg>