<?xml version="1.0" encoding="UTF-8"?>
<svg xmlns="http://www.w3.org/2000/svg" xmlns:xlink="http://www.w3.org/1999/xlink" width="206px" height="206px" viewBox="0 0 206 206" version="1.1">
<g id="surface1">
<rect x="0" y="0" width="206" height="206" style="fill:rgb(100%,100%,100%);fill-opacity:1;stroke:none;"/>
<path style=" stroke:none;fill-rule:nonzero;fill:rgb(33.333333%,67.45098%,93.333333%);fill-opacity:1;" d="M 48.507812 19.789062 C 47.34375 20.425781 46.097656 20.855469 44.785156 21.042969 C 46.121094 20.058594 47.148438 18.496094 47.632812 16.636719 C 46.382812 17.546875 44.996094 18.214844 43.519531 18.570312 C 42.335938 17.019531 40.652344 16.050781 38.785156 16.050781 C 35.207031 16.050781 32.308594 19.621094 32.308594 24.023438 C 32.308594 24.648438 32.363281 25.257812 32.476562 25.84375 C 27.089844 25.507812 22.3125 22.335938 19.117188 17.511719 C 18.558594 18.6875 18.242188 20.058594 18.242188 21.519531 C 18.242188 24.289062 19.386719 26.726562 21.121094 28.15625 C 20.0625 28.117188 19.0625 27.757812 18.1875 27.160156 C 18.1875 27.195312 18.1875 27.230469 18.1875 27.261719 C 18.1875 31.125 20.421875 34.347656 23.386719 35.082031 C 22.84375 35.261719 22.269531 35.359375 21.679688 35.359375 C 21.257812 35.359375 20.855469 35.308594 20.460938 35.21875 C 21.285156 38.382812 23.675781 40.6875 26.511719 40.753906 C 24.296875 42.894531 21.5 44.171875 18.464844 44.171875 C 17.941406 44.171875 17.425781 44.132812 16.917969 44.058594 C 19.785156 46.316406 23.191406 47.636719 26.851562 47.636719 C 38.773438 47.636719 45.292969 35.488281 45.292969 24.949219 C 45.292969 24.605469 45.285156 24.261719 45.269531 23.917969 C 46.539062 22.792969 47.636719 21.390625 48.507812 19.789062 Z M 48.507812 19.789062 "/>
<path style=" stroke:none;fill-rule:nonzero;fill:rgb(0%,49.803922%,70.980392%);fill-opacity:1;" d="M 22.53125 79.984375 L 43.0625 79.984375 C 46.117188 79.984375 48.59375 82.457031 48.59375 85.511719 L 48.59375 106.042969 C 48.59375 109.09375 46.117188 111.570312 43.0625 111.570312 L 22.53125 111.570312 C 19.480469 111.570312 17.003906 109.09375 17.003906 106.042969 L 17.003906 85.511719 C 17.003906 82.457031 19.480469 79.984375 22.53125 79.984375 Z M 22.53125 79.984375 "/>
<path style=" stroke:none;fill-rule:nonzero;fill:rgb(100%,100%,100%);fill-opacity:1;" d="M 21.441406 91.601562 L 25.898438 91.601562 L 25.898438 107.75 L 21.441406 107.75 Z M 21.441406 91.601562 "/>
<path style=" stroke:none;fill-rule:nonzero;fill:rgb(100%,100%,100%);fill-opacity:1;" d="M 40.792969 91.601562 C 37.507812 90.347656 35.128906 92.46875 34.113281 93.652344 L 34.113281 91.601562 L 29.667969 91.601562 L 29.667969 107.75 L 34.113281 107.75 L 34.113281 99.230469 C 34.085938 98.152344 34.480469 97.105469 35.210938 96.308594 C 35.632812 95.8125 36.242188 95.515625 36.894531 95.484375 C 37.621094 95.472656 38.324219 95.753906 38.839844 96.269531 C 39.390625 96.847656 39.691406 97.617188 39.679688 98.417969 L 39.679688 107.75 L 44.691406 107.75 L 44.691406 97.75 C 44.691406 97.75 45.25 93.269531 40.792969 91.601562 Z M 40.792969 91.601562 "/>
<path style=" stroke:none;fill-rule:nonzero;fill:rgb(100%,100%,100%);fill-opacity:1;" d="M 26.453125 86.585938 C 26.453125 88.125 25.207031 89.371094 23.667969 89.371094 C 22.128906 89.371094 20.882812 88.125 20.882812 86.585938 C 20.882812 85.050781 22.128906 83.804688 23.667969 83.804688 C 25.207031 83.804688 26.453125 85.050781 26.453125 86.585938 Z M 26.453125 86.585938 "/>
<path style=" stroke:none;fill-rule:evenodd;fill:rgb(5.098039%,14.901961%,21.176471%);fill-opacity:1;" d="M 87.449219 37.902344 C 90.527344 37.539062 93.800781 36.421875 93.800781 31.105469 C 93.800781 29.59375 93.269531 28.363281 92.402344 27.410156 C 92.539062 27.046875 92.988281 25.675781 92.234375 23.773438 C 92.234375 23.773438 91.113281 23.410156 88.484375 25.171875 C 87.363281 24.867188 86.132812 24.667969 84.988281 24.667969 C 83.8125 24.667969 82.578125 24.867188 81.488281 25.171875 C 78.832031 23.410156 77.710938 23.773438 77.710938 23.773438 C 76.957031 25.675781 77.402344 27.046875 77.542969 27.410156 C 76.675781 28.363281 76.144531 29.59375 76.144531 31.105469 C 76.144531 36.421875 79.417969 37.539062 82.496094 37.902344 C 82.105469 38.238281 81.742188 38.882812 81.601562 39.777344 C 80.816406 40.113281 78.773438 40.757812 77.542969 38.632812 C 77.542969 38.632812 76.816406 37.316406 75.445312 37.230469 C 75.445312 37.230469 74.074219 37.203125 75.332031 38.070312 C 75.332031 38.070312 76.257812 38.492188 76.871094 40.085938 C 76.871094 40.085938 77.710938 42.742188 81.574219 41.90625 L 81.574219 44.28125 C 81.574219 44.648438 81.292969 45.066406 80.59375 44.953125 C 75.109375 43.136719 71.164062 37.929688 71.164062 31.832031 C 71.164062 24.195312 77.347656 18.011719 84.988281 18.011719 C 92.597656 18.011719 98.808594 24.195312 98.78125 31.832031 C 98.78125 37.929688 94.835938 43.109375 89.351562 44.953125 C 88.652344 45.09375 88.371094 44.675781 88.371094 44.28125 L 88.371094 40.449219 C 88.371094 39.160156 87.953125 38.324219 87.449219 37.902344 Z M 100.765625 31.859375 C 100.765625 23.128906 93.6875 16.050781 84.988281 16.050781 C 76.257812 16.050781 69.179688 23.128906 69.179688 31.859375 C 69.179688 40.5625 76.257812 47.640625 84.988281 47.640625 C 93.6875 47.640625 100.765625 40.5625 100.765625 31.859375 Z M 100.765625 31.859375 "/>
<path style=" stroke:none;fill-rule:nonzero;fill:rgb(14.509804%,82.745098%,40%);fill-opacity:1;" d="M 85.058594 110.671875 C 76.335938 110.671875 69.265625 103.597656 69.265625 94.875 C 69.265625 86.15625 76.335938 79.082031 85.058594 79.082031 C 93.777344 79.082031 100.851562 86.15625 100.851562 94.875 C 100.851562 103.597656 93.777344 110.671875 85.058594 110.671875 Z M 85.058594 110.671875 "/>
<path style=" stroke:none;fill-rule:evenodd;fill:rgb(100%,100%,100%);fill-opacity:1;" d="M 92.445312 87.523438 C 90.488281 85.5625 87.878906 84.480469 85.101562 84.476562 C 79.382812 84.476562 74.722656 89.132812 74.722656 94.859375 C 74.722656 96.6875 75.199219 98.472656 76.109375 100.046875 L 74.636719 105.425781 L 80.140625 103.984375 C 81.65625 104.8125 83.359375 105.246094 85.097656 105.246094 L 85.101562 105.246094 C 90.820312 105.246094 95.476562 100.589844 95.480469 94.867188 C 95.484375 92.09375 94.40625 89.484375 92.445312 87.523438 Z M 85.105469 103.492188 L 85.101562 103.492188 C 83.554688 103.492188 82.035156 103.078125 80.710938 102.289062 L 80.394531 102.105469 L 77.128906 102.960938 L 78 99.777344 L 77.796875 99.449219 C 76.933594 98.078125 76.476562 96.492188 76.476562 94.859375 C 76.476562 90.101562 80.347656 86.230469 85.109375 86.230469 C 87.414062 86.230469 89.578125 87.132812 91.207031 88.761719 C 92.835938 90.390625 93.734375 92.5625 93.730469 94.863281 C 93.730469 99.625 89.859375 103.492188 85.105469 103.492188 Z M 89.835938 97.03125 C 89.578125 96.902344 88.300781 96.273438 88.0625 96.1875 C 87.828125 96.101562 87.652344 96.058594 87.480469 96.316406 C 87.304688 96.578125 86.808594 97.160156 86.660156 97.335938 C 86.507812 97.507812 86.355469 97.53125 86.097656 97.402344 C 85.835938 97.269531 85 96.996094 84.011719 96.113281 C 83.242188 95.421875 82.71875 94.574219 82.566406 94.316406 C 82.417969 94.054688 82.550781 93.914062 82.683594 93.785156 C 82.796875 93.667969 82.941406 93.480469 83.070312 93.328125 C 83.199219 93.175781 83.246094 93.070312 83.328125 92.894531 C 83.414062 92.722656 83.375 92.570312 83.308594 92.441406 C 83.242188 92.3125 82.722656 91.035156 82.507812 90.515625 C 82.296875 90.007812 82.085938 90.078125 81.925781 90.070312 C 81.773438 90.0625 81.597656 90.058594 81.429688 90.058594 C 81.253906 90.058594 80.972656 90.125 80.734375 90.386719 C 80.5 90.644531 79.828125 91.273438 79.828125 92.550781 C 79.828125 93.824219 80.757812 95.058594 80.886719 95.230469 C 81.015625 95.40625 82.714844 98.023438 85.320312 99.148438 C 85.9375 99.414062 86.421875 99.574219 86.796875 99.695312 C 87.421875 99.894531 87.984375 99.863281 88.429688 99.796875 C 88.929688 99.722656 89.964844 99.167969 90.179688 98.566406 C 90.394531 97.960938 90.394531 97.441406 90.332031 97.335938 C 90.269531 97.226562 90.09375 97.164062 89.835938 97.03125 Z M 89.835938 97.03125 "/>
</g>
</svg>
