<svg xmlns="http://www.w3.org/2000/svg" width="69" height="51" viewBox="0 0 69 51"><g fill="none" fill-rule="evenodd" transform="translate(1 1)"><path fill="#FFF" fill-rule="nonzero" d="M12.9931545,0 C13.5492199,0 14,0.448920205 14,1.00748397 L14,13.992516 C14,14.5489341 13.5500512,15 12.9931545,15 L1.00684547,15 C0.45078007,15 0,14.5510798 0,13.992516 L0,1.00748397 C0,0.45106594 0.44994876,0 1.00684547,0 L12.9931545,0 Z M13,13 L12,13 L12,14 L13,14 L13,13 Z M2,13 L1,13 L1,14 L2,14 L2,13 Z M11,8 L3,8 L3,14 L11,14 L11,8 Z M13,11 L12,11 L12,12 L13,12 L13,11 Z M2,11 L1,11 L1,12 L2,12 L2,11 Z M13,9 L12,9 L12,10 L13,10 L13,9 Z M2,9 L1,9 L1,10 L2,10 L2,9 Z M13,7 L12,7 L12,8 L13,8 L13,7 Z M2,7 L1,7 L1,8 L2,8 L2,7 Z M11,1 L3,1 L3,7 L11,7 L11,1 Z M13,5 L12,5 L12,6 L13,6 L13,5 Z M2,5 L1,5 L1,6 L2,6 L2,5 Z M13,3 L12,3 L12,4 L13,4 L13,3 Z M2,3 L1,3 L1,4 L2,4 L2,3 Z M13,1 L12,1 L12,2 L13,2 L13,1 Z M2,1 L1,1 L1,2 L2,2 L2,1 Z" transform="translate(1)"/><g transform="translate(17 17)"><rect width="16" height="16" opacity=".422"/><path fill="#FFF" fill-rule="nonzero" d="M0.0218083494,9.5 C0.0218083495,12.0082837 2.99289831,13 7.01226731,13 C9.35546178,13 10.7891308,12.9263791 12.2938613,12.6146306 C14.6142766,12.1338892 16,11.1607566 16,9.5 L16,8.00962353 C16,6.81373951 14.9785411,6.3530251 12.7585445,5.95169271 C12.5755136,5.91860427 11.8097792,5.78593672 11.9976451,5.81872874 C11.3274158,5.70174011 10.9559191,5.62263194 10.6653949,5.52565835 C10.258006,5.38967671 10.0228925,5.16250304 9.53127793,4.50612211 C8.71198824,3.41224447 8.1630775,3 7.01226729,3 C3.6862812,3 0.744809051,4.6036287 0.0373504045,7.37622175 C-0.036385917,7.66520092 0.0218083494,9.38174655 0.0218083494,9.5 Z M1.00490329,7.62377825 C1.57980154,5.37070111 4.09402385,4 7.01226771,4 C7.76362284,4 8.08427352,4.24081593 8.73236822,5.10612196 C9.34129256,5.91912952 9.68701875,6.25318041 10.3495981,6.47434165 C10.7031667,6.59235868 11.1068028,6.67831077 11.8261562,6.80387403 C11.6424791,6.77181316 12.4022889,6.90345424 12.5811244,6.93578424 C14.2616021,7.23958206 15.001363,7.57324061 15.001363,8.00962353 L15.001363,9.5 C15.001363,11.4025477 12.1176046,12 7.01226769,12 C3.54185325,12 1.02044535,11.1583825 1.02044535,9.5 C1.02044535,9.3487177 1.01605564,9.27078387 0.988070635,8.85012744 C0.975978398,8.66836305 0.969044323,8.54984713 0.964100955,8.42900318 C0.949038276,8.06078589 0.961420054,7.79419289 1.00490329,7.62377825 L1.00490329,7.62377825 Z M6.84307347,5.77902651 C7.14721238,4.72243909 7.72753979,4.70059305 8.13472964,5.72530627 C8.13472964,5.72530627 8.14903208,5.7495578 8.35116012,6.27911372 C8.64508244,7.04916181 8.53166384,7.97852972 8.01090432,8.5 C7.01226733,9.5 2.01908234,8.99999999 2.01908234,7.49999999 C2.01908234,6.39956114 3.26286793,5.56822735 4.78738894,5.20341643 C5.2324087,5.09692523 5.73551761,4.92025108 5.73551761,4.92025108 C6.13119687,4.7897848 6.26330378,4.96664285 6.04192078,5.30389024 C6.04192078,5.30389024 5.97250513,5.39715567 5.91048712,5.51628639 C5.80696005,5.71515207 5.68979024,5.91376431 5.56252522,6.09715005 C5.41935923,6.3034487 5.2730595,6.4759132 5.13072474,6.60156359 C5.01358106,6.70497578 4.87122831,6.80115429 4.70870125,6.88937153 C4.38790788,7.06349336 3.45628906,7.4918262 3.54143452,7.68478154 C3.62657999,7.87773688 4.88080143,7.70893163 5.30160604,7.48052521 C5.52552466,7.35898554 5.72641251,7.22325868 5.89789893,7.07187376 C6.09421946,6.89856577 6.27778413,6.68217173 6.4519582,6.4311912 C6.59695824,6.22224974 6.72777111,6.00051141 6.84307347,5.77902651 C6.91235312,5.64594689 6.84307347,5.77902651 6.84307347,5.77902651 Z M10.0081783,8.88356528 C10.0081783,9.17509643 10.290331,9.39544384 10.5968392,9.34328059 C10.6620141,9.33218876 10.7741127,9.31227787 10.9177062,9.28534964 C11.1571235,9.24045145 11.3967218,9.19219453 11.6215726,9.14222768 C11.8777349,9.0853027 12.0990024,9.02962881 12.2776794,8.97528623 C12.8578597,8.79883104 13.0420713,8.70731199 13.0020859,8.29086846 C13.040096,7.97862706 12.8536157,7.87774264 12.3734274,7.72598558 C12.1790489,7.66455483 11.9217914,7.60270564 11.6125742,7.5396165 C11.3876563,7.49372684 11.1480038,7.44981064 10.9085352,7.40924545 C10.7649141,7.3849165 10.6527913,7.36703269 10.5875934,7.35711736 C10.2838465,7.31092328 10.0081783,7.53035068 10.0081783,7.81832232 L10.0081783,8.88356528 Z"/></g><rect width="16" height="16" opacity=".422" transform="translate(34)"/><g transform="translate(51)"><rect width="16" height="16" opacity=".422"/><path fill="#FFF" fill-rule="nonzero" d="M13.1799526,9.15981053 L12.2708153,5.82630713 C14.745689,3.3514334 16.513456,1.58366644 15.4527958,0.523006272 C14.3921356,-0.5376539 12.1571819,1.69729982 10.1494949,3.70498679 L6.81599154,2.7958495 L6.96420202,2.64763902 C7.16972219,2.44211885 7.16277657,2.13248198 6.96751442,1.93721983 C6.77796285,1.74766826 6.45418677,1.7434407 6.25709523,1.94053224 L5.70482374,2.49280373 L2.37132034,1.58366644 L0.957106781,2.99788001 L7.32106781,6.53341391 L7.40753828,6.61988438 C6.24492549,7.90258973 5.10785434,9.19776319 4.3496471,10.0689478 L0.957106781,10.0689478 L0.25,10.7760546 L3.43198052,12.5438216 L5.19974747,15.7258021 L5.90685425,15.0186953 L5.90685425,11.626155 C6.77803888,10.8679477 8.07321234,9.73087658 9.35591768,8.56826378 L9.44238816,8.65473426 L12.9779221,15.0186953 L14.3921356,13.6044817 L13.4829983,10.2709783 L14.0352698,9.71870683 C14.24079,9.51318666 14.2338444,9.20354979 14.0385822,9.00828765 C13.8490307,8.81873607 13.5252546,8.81450851 13.328163,9.01160005 L13.1799526,9.15981053 L13.1799526,9.15981053 Z"/></g><g transform="translate(0 17)"><rect width="16" height="16" opacity=".422"/><path fill="#FFF" fill-rule="nonzero" d="M2.58578644,7 L1.00087166,7 C0.444630861,7 0,7.44771525 0,8 C0,8.55613518 0.448105505,9 1.00087166,9 L4.58578644,9 L3.29289322,7.70710678 L2.58578644,7 Z M13.4142136,7 L14.9991283,7 C15.5518945,7 16,7.44386482 16,8 C16,8.55228475 15.5553691,9 14.9991283,9 L11.4142136,9 L12.7071068,7.70710678 L13.4142136,7 Z M5.58578644,10 L0,10 L0,11.5 C0,12.3342028 0.673919421,13 1.50524116,13 L14.4947588,13 C15.3328702,13 16,12.3284271 16,11.5 L16,10 L10.4142136,10 L8.70710678,11.7071068 L8,12.4142136 L7.29289322,11.7071068 L5.58578644,10 Z M4,7 L8,11 L12,7 L4,7 Z M16,5.5 C16,2.75464401 12.490712,1 8,1 C3.50928802,1 0,2.75464401 0,5.5 C0,5.77614237 0.223857625,6 0.5,6 L15.5,6 C15.7761424,6 16,5.77614237 16,5.5 Z"/></g><g transform="translate(34 17)"><rect width="16" height="16" opacity=".422"/><path fill="#FFF" fill-rule="nonzero" d="M14,4.12351101 L14,9.50001989 C13.5821697,9.18617539 13.062803,9.00020298 12.5,9.00020298 C11.1192881,9.00020298 10,10.1194911 10,11.500203 C10,12.8809149 11.1192881,14.000203 12.5,14.000203 C13.8807119,14.000203 15,12.8809149 15,11.500203 L15,3.50020298 L15,0.500202976 C15,0.180329006 14.7037916,-0.0572809611 14.3915348,0.0121094456 L5.39153477,2.01210945 C5.16276599,2.06294696 5,2.26585366 5,2.50020298 L5,5.50020298 L5,11.5000199 C4.58216973,11.1861754 4.06280296,11.000203 3.5,11.000203 C2.11928813,11.000203 1,12.1194911 1,13.500203 C1,14.8809149 2.11928813,16.000203 3.5,16.000203 C4.88071187,16.000203 6,14.8809149 6,13.500203 L6,5.90128878 L14,4.12351101 Z"/></g><g transform="translate(51 17)"><rect width="16" height="16" opacity=".422"/><path fill="#FFF" fill-rule="nonzero" d="M3.18748955,5.5875212 L6.5,7.5 L3.18748955,9.4124788 L1.57934251,8.35069323 C1.34889841,8.19854158 1.03874326,8.26201015 0.886591612,8.49245426 C0.734439961,8.72289836 0.797908535,9.03305351 1.02835264,9.18520516 L2.21924371,9.9714958 L1.1870227,10.5674489 C0.948524283,10.705146 0.866738284,11.0108537 1.00480947,11.25 C1.13884267,11.4821523 1.44831792,11.5712905 1.6870227,11.4334743 L2.71924371,10.8375212 L2.80474584,12.2620084 C2.82129099,12.5376547 3.05815893,12.7476977 3.33380521,12.7311525 C3.60945148,12.7146074 3.81949445,12.4777395 3.80294931,12.2020932 L3.68748955,10.2785042 L7,8.3660254 L7,12.190983 L5.2763932,13.0527864 C5.02940395,13.176281 4.92929178,13.4766175 5.0527864,13.7236068 C5.17628103,13.970596 5.47661755,14.0707082 5.7236068,13.9472136 L7,13.309017 L7,14.5009232 C7,14.7763174 7.22385763,15 7.5,15 C7.76806641,15 8,14.7765557 8,14.5009232 L8,13.309017 L9.2763932,13.9472136 C9.52338245,14.0707082 9.82371897,13.970596 9.9472136,13.7236068 C10.0707082,13.4766175 9.97059605,13.176281 9.7236068,13.0527864 L8,12.190983 L8,8.3660254 L11.3125105,10.2785042 L11.1970507,12.2020932 C11.1805055,12.4777395 11.3905485,12.7146074 11.6661948,12.7311525 C11.9418411,12.7476977 12.178709,12.5376547 12.1952542,12.2620084 L12.2807563,10.8375212 L13.3129773,11.4334743 C13.5514757,11.5711714 13.8571193,11.4891463 13.9951905,11.25 C14.1292237,11.0178477 14.0516821,10.7052651 13.8129773,10.5674489 L12.7807563,9.9714958 L13.9716474,9.18520516 C14.2020915,9.03305351 14.26556,8.72289836 14.1134084,8.49245426 C13.9612567,8.26201015 13.6511016,8.19854158 13.4206575,8.35069323 L11.8125105,9.4124788 L8.5,7.5 L11.8125105,5.5875212 L13.4206575,6.64930677 C13.6511016,6.80145842 13.9612567,6.73798985 14.1134084,6.50754574 C14.26556,6.27710164 14.2020915,5.96694649 13.9716474,5.81479484 L12.7807563,5.0285042 L13.8129773,4.43255112 C14.0514757,4.294854 14.1332617,3.98914631 13.9951905,3.75 C13.8611573,3.51784768 13.5516821,3.42870945 13.3129773,3.56652572 L12.2807563,4.1624788 L12.1952542,2.73799156 C12.178709,2.46234529 11.9418411,2.25230232 11.6661948,2.26884746 C11.3905485,2.2853926 11.1805055,2.52226055 11.1970507,2.79790682 L11.3125105,4.7214958 L8,6.6339746 L8,2.80901699 L9.7236068,1.9472136 C9.97059605,1.82371897 10.0707082,1.52338245 9.9472136,1.2763932 C9.82371897,1.02940395 9.52338245,0.92929178 9.2763932,1.0527864 L8,1.69098301 L8,0.499076843 C8,0.223682597 7.77614237,0 7.5,0 C7.23193359,0 7,0.223444314 7,0.499076843 L7,1.69098301 L5.7236068,1.0527864 C5.47661755,0.92929178 5.17628103,1.02940395 5.0527864,1.2763932 C4.92929178,1.52338245 5.02940395,1.82371897 5.2763932,1.9472136 L7,2.80901699 L7,6.6339746 L3.68748955,4.7214958 L3.80294931,2.79790682 C3.81949445,2.52226055 3.60945148,2.2853926 3.33380521,2.26884746 C3.05815893,2.25230232 2.82129099,2.46234529 2.80474584,2.73799156 L2.71924371,4.1624788 L1.6870227,3.56652572 C1.44852428,3.4288286 1.14288066,3.51085369 1.00480947,3.75 C0.870776268,3.98215232 0.948317924,4.29473486 1.1870227,4.43255112 L2.21924371,5.0285042 L1.02835264,5.81479484 C0.797908535,5.96694649 0.734439961,6.27710164 0.886591612,6.50754574 C1.03874326,6.73798985 1.34889841,6.80145842 1.57934251,6.64930677 L3.18748955,5.5875212 Z"/></g><g transform="translate(0 34)"><rect width="16" height="16" opacity=".422"/><path fill="#FFF" fill-rule="nonzero" d="M2.55687866,13.1634804 L1.84977188,12.4563736 L2.274274,12.0318715 C2.02113885,11.8689827 1.7538084,11.6533033 1.49621849,11.3957134 C0.715169908,10.6146648 0.319441796,9.744063 0.612335015,9.45116978 C0.905228234,9.15827656 1.77583008,9.55400467 2.55687866,10.3350533 C2.81446857,10.5926432 3.0301479,10.8599736 3.19303672,11.1131088 L4.67165512,9.63449036 C5.84684208,8.4593034 5.84515825,6.55226503 4.67165512,5.3787619 L3.19303672,3.9001435 C3.0301479,4.15327865 2.81446857,4.4206091 2.55687866,4.67819901 C1.77583008,5.45924759 0.905228234,5.8549757 0.612335015,5.56208248 C0.319441796,5.26918926 0.715169908,4.39858742 1.49621849,3.61753884 C1.7538084,3.35994893 2.02113885,3.1442696 2.274274,2.98138078 L1.84977188,2.55687866 L2.55687866,1.84977188 L2.98138078,2.274274 C3.1442696,2.02113885 3.35994893,1.7538084 3.61753884,1.49621849 C4.39858742,0.715169908 5.26918926,0.319441796 5.56208248,0.612335015 C5.8549757,0.905228234 5.45924759,1.77583008 4.67819901,2.55687866 C4.4206091,2.81446857 4.15327865,3.0301479 3.9001435,3.19303672 L5.3787619,4.67165512 C6.55394886,5.84684208 8.46098723,5.84515825 9.63449036,4.67165512 L11.1131088,3.19303672 C10.8599736,3.0301479 10.5926432,2.81446857 10.3350533,2.55687866 C9.55400467,1.77583008 9.15827656,0.905228234 9.45116978,0.612335015 C9.744063,0.319441796 10.6146648,0.715169908 11.3957134,1.49621849 C11.6533033,1.7538084 11.8689827,2.02113885 12.0318715,2.274274 L12.4563736,1.84977188 L13.1634804,2.55687866 L12.7389783,2.98138078 C12.9921134,3.1442696 13.2594439,3.35994893 13.5170338,3.61753884 C14.2980824,4.39858742 14.6938105,5.26918926 14.4009172,5.56208248 C14.108024,5.8549757 13.2374222,5.45924759 12.4563736,4.67819901 C12.1987837,4.4206091 11.9831044,4.15327865 11.8202155,3.9001435 L10.3415971,5.3787619 C9.16641018,6.55394886 9.16809401,8.46098723 10.3415971,9.63449036 L11.9288068,11.2217001 C12.0778426,10.8524658 12.3875394,10.4038875 12.809927,9.98149987 C13.5909756,9.20045128 14.4615774,8.80472317 14.7544706,9.09761639 C15.0473639,9.39050961 14.6516357,10.2611115 13.8705872,11.04216 C13.4481996,11.4645476 12.9996212,11.7742445 12.630387,11.9232802 L13.1634804,12.4563736 L12.4563736,13.1634804 L11.9232802,12.630387 C11.7742445,12.9996212 11.4645476,13.4481996 11.04216,13.8705872 C10.2611115,14.6516357 9.39050961,15.0473639 9.09761639,14.7544706 C8.80472317,14.4615774 9.20045128,13.5909756 9.98149987,12.809927 C10.4038875,12.3875394 10.8524658,12.0778426 11.2217001,11.9288068 L9.63449036,10.3415971 C8.4593034,9.16641018 6.55226503,9.16809401 5.3787619,10.3415971 L3.9001435,11.8202155 C4.15327865,11.9831044 4.4206091,12.1987837 4.67819901,12.4563736 C5.45924759,13.2374222 5.8549757,14.108024 5.56208248,14.4009172 C5.26918926,14.6938105 4.39858742,14.2980824 3.61753884,13.5170338 C3.35994893,13.2594439 3.1442696,12.9921134 2.98138078,12.7389783 L2.55687866,13.1634804 Z"/></g></g></svg>